<?xml version="1.0" encoding="UTF-8"?>
<svg version="1.1" xmlns="http://www.w3.org/2000/svg" width="394" height="146">
<path d="M0 0 C125.73 0 251.46 0 381 0 C381.66 1.98 382.32 3.96 383 6 C388.445 6.495 388.445 6.495 394 7 C394 20.2 394 33.4 394 47 C393.34 46.34 392.68 45.68 392 45 C389.42938689 44.35232207 389.42938689 44.35232207 387 44 C387 44.99 387 45.98 387 47 C385.0625 46.1875 385.0625 46.1875 383 45 C382.67 44.01 382.34 43.02 382 42 C380.68 42.33 379.36 42.66 378 43 C378 45.64 378 48.28 378 51 C380.31 51 382.62 51 385 51 C384.65811194 54.07699253 383.98640128 55.01286365 381.6875 57.1875 C378.29006385 60.74295644 376.76783603 64.46683386 375 69 C374.34 69 373.68 69 373 69 C372.68417969 68.18144531 372.36835938 67.36289063 372.04296875 66.51953125 C370.295589 63.80843151 370.295589 63.80843151 367.79150391 63.58740234 C364.95149373 63.50714681 362.15101142 63.56571568 359.3125 63.6875 C357.83040039 63.72133789 357.83040039 63.72133789 356.31835938 63.75585938 C353.87738441 63.81482012 351.43945132 63.89704952 349 64 C346.55301103 68.80445395 346.56379939 73.53791706 346.375 78.8125 C346.33632813 79.69615234 346.29765625 80.57980469 346.2578125 81.49023438 C346.16399216 83.65982972 346.08092674 85.82988547 346 88 C344.515 88.495 344.515 88.495 343 89 C342.67 87.68 342.34 86.36 342 85 C340.68 85 339.36 85 338 85 C337.93941406 86.14339844 337.87882812 87.28679687 337.81640625 88.46484375 C337.73201572 89.95574305 337.64736698 91.44662775 337.5625 92.9375 C337.50352539 94.06961914 337.50352539 94.06961914 337.44335938 95.22460938 C337.11328125 100.88671875 337.11328125 100.88671875 336 102 C334.52211018 102.08789369 333.04004236 102.10693664 331.55957031 102.09765625 C330.61478821 102.09435303 329.6700061 102.0910498 328.69659424 102.08764648 C327.15295197 102.07519897 327.15295197 102.07519897 325.578125 102.0625 C324.52598816 102.05871338 323.47385132 102.05492676 322.38983154 102.05102539 C317.86986631 102.0346205 313.34998987 102.00659617 308.83007812 101.97949219 C305.53776467 101.96140255 302.24546603 101.94930613 298.953125 101.9375 C297.93212708 101.92920166 296.91112915 101.92090332 295.85919189 101.91235352 C294.90180115 101.90905029 293.9444104 101.90574707 292.95800781 101.90234375 C292.11941223 101.89710693 291.28081665 101.89187012 290.41680908 101.88647461 C287.95708883 101.93306827 287.95708883 101.93306827 285.44012451 102.56860352 C282.84147233 103.02802655 281.49439365 102.72369744 279 102 C277.62176371 101.94043213 276.24067927 101.93194623 274.86157227 101.96582031 C274.05716202 101.9820343 273.25275177 101.99824829 272.42396545 102.01495361 C271.56347092 102.03580017 270.70297638 102.05664673 269.81640625 102.078125 C267.9837416 102.1053799 266.15105798 102.13138302 264.31835938 102.15625 C261.43657477 102.19950749 258.55577769 102.25016821 255.67456055 102.32226562 C252.88835389 102.38894977 250.1032229 102.42366097 247.31640625 102.453125 C246.45793594 102.48206848 245.59946564 102.51101196 244.71498108 102.54083252 C240.58001306 102.559293 238.5135803 102.32979911 234.96191406 100.04907227 C232.27733578 95.87688484 232.27041711 92.63111133 232.29296875 87.76171875 C232.27784744 86.88095169 232.26272614 86.00018463 232.24714661 85.09272766 C232.2042971 82.29072412 232.19543444 79.48979842 232.1875 76.6875 C232.1643535 74.78317453 232.13898784 72.87887464 232.11132812 70.97460938 C232.04850303 66.31631109 232.01614631 61.6586845 232 57 C230.68 57 229.36 57 228 57 C227.67 61.62 227.34 66.24 227 71 C226.01 71 225.02 71 224 71 C222.19380477 66.53763531 221.88341499 63.68965706 223 59 C222.01 59 221.02 59 220 59 C220.02320313 60.27230469 220.04640625 61.54460938 220.0703125 62.85546875 C220.22784814 75.70077677 219.44798375 88.23964321 218 101 C214.16275828 101.90413673 210.62497726 102.10576898 206.6875 102.0625 C205.61886719 102.05347656 204.55023438 102.04445313 203.44921875 102.03515625 C202.64097656 102.02355469 201.83273438 102.01195313 201 102 C192.92384855 87.26725817 192.92384855 87.26725817 191.125 82.125 C190.36888173 78.89690948 190.36888173 78.89690948 188 78 C188.01160156 79.25296875 188.02320313 80.5059375 188.03515625 81.796875 C188.04453716 83.44791517 188.05363704 85.09895696 188.0625 86.75 C188.07087891 87.575 188.07925781 88.4 188.08789062 89.25 C188.09111328 90.04921875 188.09433594 90.8484375 188.09765625 91.671875 C188.10289307 92.4050293 188.10812988 93.13818359 188.11352539 93.89355469 C187.99565861 96.08055378 187.71538093 97.92864063 187 100 C183.70039859 101.6498007 180.00872116 101.38258361 176.375 101.5625 C175.57320312 101.60568359 174.77140625 101.64886719 173.9453125 101.69335938 C171.9637489 101.79951457 169.98189729 101.90026855 168 102 C166.61773984 99.23547967 166.90474613 96.9538637 166.9375 93.875 C166.94652344 92.77929688 166.95554688 91.68359375 166.96484375 90.5546875 C166.98224609 89.29011719 166.98224609 89.29011719 167 88 C165.02 89.485 165.02 89.485 163 91 C162.49564306 89.0636296 161.99666126 87.12585854 161.5 85.1875 C161.08234375 83.56908203 161.08234375 83.56908203 160.65625 81.91796875 C160 79 160 79 160 76 C158.68 76 157.36 76 156 76 C156.00523682 76.71655762 156.01047363 77.43311523 156.01586914 78.17138672 C156.03660667 81.40591562 156.04964984 84.64043056 156.0625 87.875 C156.07087891 89.00292969 156.07925781 90.13085938 156.08789062 91.29296875 C156.09111328 92.36933594 156.09433594 93.44570312 156.09765625 94.5546875 C156.10289307 95.54968262 156.10812988 96.54467773 156.11352539 97.56982422 C156 100 156 100 155 102 C148.07 102 141.14 102 134 102 C133 100 133 100 132.5625 97.625 C132.02394567 95.11174645 131.24125594 93.23426069 130 91 C129.01 91 128.02 91 127 91 C125.68 94.63 124.36 98.26 123 102 C116.4 102 109.8 102 103 102 C102.67 101.01 102.34 100.02 102 99 C100.329375 99.309375 100.329375 99.309375 98.625 99.625 C97.42875 99.74875 96.2325 99.8725 95 100 C94.34 99.34 93.68 98.68 93 98 C90.48092513 98.51872074 88.13670891 99.12319326 85.6875 99.875 C81.41381287 101.16000777 77.51388453 102.29685121 73 102 C72.566875 101.0925 72.13375 100.185 71.6875 99.25 C69.01811985 93.81563185 69.01811985 93.81563185 64 91 C63.896875 92.27875 63.79375 93.5575 63.6875 94.875 C63.51171875 97.0546875 63.51171875 97.0546875 63 99 C60.03651571 100.9756562 59.31979627 101.26376859 55.98828125 101.4140625 C55.23095703 101.45273438 54.47363281 101.49140625 53.69335938 101.53125 C52.90767578 101.5621875 52.12199219 101.593125 51.3125 101.625 C50.51521484 101.66367188 49.71792969 101.70234375 48.89648438 101.7421875 C46.93136525 101.83632494 44.9657146 101.91924632 43 102 C42.67 100.35 42.34 98.7 42 97 C39.69 97 37.38 97 35 97 C35 97.99 35 98.98 35 100 C31.535 100.99 31.535 100.99 28 102 C28 103.32 28 104.64 28 106 C23.93631321 106.77403558 20.13574827 107.0984702 16 107 C16 107.66 16 108.32 16 109 C15.34 109 14.68 109 14 109 C13.649375 107.88625 13.29875 106.7725 12.9375 105.625 C12.19669368 103.66818521 12.19669368 103.66818521 11 102 C7.44107712 100.46954015 7.44107712 100.46954015 4 100 C5.98 99.505 5.98 99.505 8 99 C7.01 98.01 6.02 97.02 5 96 C3.515 96.495 3.515 96.495 2 97 C1.67 98.98 1.34 100.96 1 103 C0.67 103 0.34 103 0 103 C0 69.01 0 35.02 0 0 Z M330 61 C329.34 66.28 328.68 71.56 328 77 C332.29 77 336.58 77 341 77 C342.21043546 71.25090928 342.21043546 71.25090928 341 66 C338.0999475 64.25829702 338.0999475 64.25829702 335 63 C334.34 62.34 333.68 61.68 333 61 C332.01 61 331.02 61 330 61 Z " fill="#F8F8F8" transform="translate(0,0)"/>
<path d="M0 0 C93.39 0 186.78 0 283 0 C283 3.3 283 6.6 283 10 C274.42 10.33 265.84 10.66 257 11 C269.87 11.495 269.87 11.495 283 12 C283 21.24 283 30.48 283 40 C282.67 39.34 282.34 38.68 282 38 C279.26885599 37.08961866 277.64713446 36.86934799 274.83569336 36.85473633 C274.00150375 36.84835648 273.16731415 36.84197662 272.30784607 36.83540344 C270.96243492 36.83373421 270.96243492 36.83373421 269.58984375 36.83203125 C268.2049752 36.82703865 268.2049752 36.82703865 266.79212952 36.82194519 C264.84116108 36.81688368 262.89018398 36.81453663 260.93920898 36.81469727 C257.94565723 36.81250597 254.95247114 36.79432896 251.95898438 36.77539062 C250.06510543 36.77245758 248.17122473 36.77047219 246.27734375 36.76953125 C244.92889626 36.75875298 244.92889626 36.75875298 243.5532074 36.74775696 C242.72216995 36.75083359 241.89113251 36.75391022 241.03491211 36.75708008 C240.30227646 36.75565506 239.56964081 36.75423004 238.81480408 36.75276184 C236.74876242 36.84778123 236.74876242 36.84778123 235 39 C232.8359375 39.1953125 232.8359375 39.1953125 230.375 39.125 C229.55773437 39.10695312 228.74046875 39.08890625 227.8984375 39.0703125 C227.27195313 39.04710937 226.64546875 39.02390625 226 39 C226 39.97582031 226 40.95164063 226 41.95703125 C226 56 226 56 225 59 C222.62293582 55.33460332 222.94905683 52.50943165 223.375 48.25 C223.48585937 47.07953125 223.59671875 45.9090625 223.7109375 44.703125 C223.80632812 43.81109375 223.90171875 42.9190625 224 42 C222.68 42 221.36 42 220 42 C219.67 42.66 219.34 43.32 219 44 C219 41.36 219 38.72 219 36 C213.06 36 207.12 36 201 36 C201 44.91 201 53.82 201 63 C200.34 62.67 199.68 62.34 199 62 C198.66666667 60.66666667 198.33333333 59.33333333 198 58 C197.34 57.67 196.68 57.34 196 57 C195.2133623 55.0506314 194.51756943 53.06398478 193.875 51.0625 C193.52179688 49.98097656 193.16859375 48.89945313 192.8046875 47.78515625 C192 45 192 45 192 43 C191.34 43 190.68 43 190 43 C189.01 40.03 189.01 40.03 188 37 C181.73 36.67 175.46 36.34 169 36 C169 36.99 169 37.98 169 39 C165.87507749 39.05791844 162.75029234 39.09356746 159.625 39.125 C158.73554688 39.14175781 157.84609375 39.15851562 156.9296875 39.17578125 C155.65351563 39.18544922 155.65351563 39.18544922 154.3515625 39.1953125 C153.17327881 39.21102295 153.17327881 39.21102295 151.97119141 39.22705078 C150 39 150 39 148 37 C145.20783209 36.75430728 142.50759395 36.62636862 139.7109375 36.5859375 C138.48330185 36.55688828 138.48330185 36.55688828 137.23086548 36.5272522 C134.61235024 36.46738918 131.99379119 36.42104468 129.375 36.375 C127.60154314 36.33682636 125.82810495 36.29777499 124.0546875 36.2578125 C119.70327625 36.16168229 115.35177821 36.07767649 111 36 C109.37730341 38.87585841 108.73268358 41.02281455 108.62109375 44.31518555 C108.57094116 45.58382698 108.57094116 45.58382698 108.51977539 46.87809753 C108.49262451 47.78844254 108.46547363 48.69878754 108.4375 49.63671875 C108.40068115 50.58956253 108.3638623 51.54240631 108.32592773 52.52412415 C108.20860362 55.5783343 108.10318203 58.63278167 108 61.6875 C107.53231299 75.22091971 106.8625482 88.57902917 105 102 C103.515 101.505 103.515 101.505 102 101 C102 100.34 102 99.68 102 99 C100.329375 99.309375 100.329375 99.309375 98.625 99.625 C97.42875 99.74875 96.2325 99.8725 95 100 C94.34 99.34 93.68 98.68 93 98 C90.48092513 98.51872074 88.13670891 99.12319326 85.6875 99.875 C81.41381287 101.16000777 77.51388453 102.29685121 73 102 C72.566875 101.0925 72.13375 100.185 71.6875 99.25 C69.01811985 93.81563185 69.01811985 93.81563185 64 91 C63.896875 92.27875 63.79375 93.5575 63.6875 94.875 C63.51171875 97.0546875 63.51171875 97.0546875 63 99 C60.03651571 100.9756562 59.31979627 101.26376859 55.98828125 101.4140625 C55.23095703 101.45273438 54.47363281 101.49140625 53.69335938 101.53125 C52.90767578 101.5621875 52.12199219 101.593125 51.3125 101.625 C50.51521484 101.66367188 49.71792969 101.70234375 48.89648438 101.7421875 C46.93136525 101.83632494 44.9657146 101.91924632 43 102 C42.67 100.35 42.34 98.7 42 97 C39.69 97 37.38 97 35 97 C35 97.99 35 98.98 35 100 C31.535 100.99 31.535 100.99 28 102 C28 103.32 28 104.64 28 106 C23.93631321 106.77403558 20.13574827 107.0984702 16 107 C16 107.66 16 108.32 16 109 C15.34 109 14.68 109 14 109 C13.649375 107.88625 13.29875 106.7725 12.9375 105.625 C12.19669368 103.66818521 12.19669368 103.66818521 11 102 C7.44107712 100.46954015 7.44107712 100.46954015 4 100 C5.98 99.505 5.98 99.505 8 99 C7.01 98.01 6.02 97.02 5 96 C3.515 96.495 3.515 96.495 2 97 C1.67 98.98 1.34 100.96 1 103 C0.67 103 0.34 103 0 103 C0 69.01 0 35.02 0 0 Z " fill="#F9F9F9" transform="translate(0,0)"/>
<path d="M0 0 C2.50007582 -0.02730665 4.9998449 -0.04698485 7.5 -0.0625 C8.19609375 -0.07087891 8.8921875 -0.07925781 9.609375 -0.08789062 C13.76071802 -0.10710981 17.71809539 0.18245693 21.83935547 0.75708008 C24.3198333 1.03595866 26.7746707 1.13463728 29.26953125 1.2109375 C30.63174805 1.25347656 30.63174805 1.25347656 32.02148438 1.296875 C33.90147746 1.34949902 35.78172616 1.39360064 37.66210938 1.4296875 C38.56380859 1.460625 39.46550781 1.4915625 40.39453125 1.5234375 C41.20768799 1.54325684 42.02084473 1.56307617 42.85864258 1.58349609 C45 2 45 2 46.76293945 3.00292969 C48.77146214 6.24542338 48.42652595 9.72923154 48.3984375 13.4296875 C48.40130768 14.257034 48.40417786 15.08438049 48.40713501 15.9367981 C48.40917605 17.68687626 48.40364336 19.43697722 48.39111328 21.18701172 C48.37510028 23.85827083 48.3909389 26.52800759 48.41015625 29.19921875 C48.40817303 30.90104499 48.40432771 32.60287029 48.3984375 34.3046875 C48.40451019 35.10067352 48.41058289 35.89665955 48.4168396 36.71676636 C48.36027184 41.20754781 48.10849378 44.4744595 45 48 C43.68 48 42.36 48 41 48 C41.680625 49.6396875 41.680625 49.6396875 42.375 51.3125 C42.63023438 51.92738281 42.88546875 52.54226562 43.1484375 53.17578125 C44.06806692 55.26533932 44.06806692 55.26533932 46 58 C46 59.32 46 60.64 46 62 C44.44240657 62.53532823 42.87861955 63.05265378 41.3125 63.5625 C40.44238281 63.85253906 39.57226562 64.14257812 38.67578125 64.44140625 C35.6979092 65.06306421 33.89572467 64.87646516 31 64 C27.91638247 61.84863893 26.09539586 60.1430938 24 57 C22.515 56.505 22.515 56.505 21 56 C20.896875 57.27875 20.79375 58.5575 20.6875 59.875 C20.51171875 62.0546875 20.51171875 62.0546875 20 64 C17.03651571 65.9756562 16.31979627 66.26376859 12.98828125 66.4140625 C12.23095703 66.45273438 11.47363281 66.49140625 10.69335938 66.53125 C9.90767578 66.5621875 9.12199219 66.593125 8.3125 66.625 C7.51521484 66.66367188 6.71792969 66.70234375 5.89648438 66.7421875 C3.93136525 66.83632494 1.9657146 66.91924632 0 67 C-0.33 65.35 -0.66 63.7 -1 62 C-3.31 62 -5.62 62 -8 62 C-8 62.99 -8 63.98 -8 65 C-11.465 65.99 -11.465 65.99 -15 67 C-15 68.32 -15 69.64 -15 71 C-19.06368679 71.77403558 -22.86425173 72.0984702 -27 72 C-27 72.66 -27 73.32 -27 74 C-27.66 74 -28.32 74 -29 74 C-29.350625 72.88625 -29.70125 71.7725 -30.0625 70.625 C-30.80330632 68.66818521 -30.80330632 68.66818521 -32 67 C-35.55892288 65.46954015 -35.55892288 65.46954015 -39 65 C-37.02 64.505 -37.02 64.505 -35 64 C-35.99 63.01 -36.98 62.02 -38 61 C-39.485 61.495 -39.485 61.495 -41 62 C-41.495 64.97 -41.495 64.97 -42 68 C-42.33 68 -42.66 68 -43 68 C-43 47.21 -43 26.42 -43 5 C-27.25 3.875 -27.25 3.875 -21.2890625 3.90234375 C-19.39414062 3.90717773 -19.39414062 3.90717773 -17.4609375 3.91210938 C-16.19507812 3.92048828 -14.92921875 3.92886719 -13.625 3.9375 C-12.29166839 3.94253573 -10.95833489 3.9470949 -9.625 3.95117188 C-6.41661639 3.96279645 -3.20833449 3.97913331 0 4 C0 2.68 0 1.36 0 0 Z " fill="#EFEFEF" transform="translate(43,35)"/>
<path d="M0 0 C31.35 0 62.7 0 95 0 C95.99 2.97 95.99 2.97 97 6 C100.63 6.33 104.26 6.66 108 7 C108 20.2 108 33.4 108 47 C107.34 46.34 106.68 45.68 106 45 C103.42938689 44.35232207 103.42938689 44.35232207 101 44 C101 44.99 101 45.98 101 47 C99.0625 46.1875 99.0625 46.1875 97 45 C96.67 44.01 96.34 43.02 96 42 C94.68 42.33 93.36 42.66 92 43 C92 45.64 92 48.28 92 51 C94.31 51 96.62 51 99 51 C98.65811194 54.07699253 97.98640128 55.01286365 95.6875 57.1875 C92.29006385 60.74295644 90.76783603 64.46683386 89 69 C88.34 69 87.68 69 87 69 C86.68417969 68.18144531 86.36835938 67.36289063 86.04296875 66.51953125 C84.295589 63.80843151 84.295589 63.80843151 81.79150391 63.58740234 C78.95149373 63.50714681 76.15101142 63.56571568 73.3125 63.6875 C71.83040039 63.72133789 71.83040039 63.72133789 70.31835938 63.75585938 C67.87738441 63.81482012 65.43945132 63.89704952 63 64 C60.55301103 68.80445395 60.56379939 73.53791706 60.375 78.8125 C60.33632813 79.69615234 60.29765625 80.57980469 60.2578125 81.49023438 C60.16399216 83.65982972 60.08092674 85.82988547 60 88 C59.01 88.33 58.02 88.66 57 89 C56.67 87.68 56.34 86.36 56 85 C54.68 85 53.36 85 52 85 C51.67 90.28 51.34 95.56 51 101 C50.67 101 50.34 101 50 101 C49.15318867 95.91913204 48.90961901 91.15171623 49 86 C47.99839844 86.01160156 46.99679687 86.02320312 45.96484375 86.03515625 C44.62239772 86.04454398 43.27994964 86.05364312 41.9375 86.0625 C39.97103516 86.07990234 39.97103516 86.07990234 37.96484375 86.09765625 C34.1836481 86.00452335 30.72079293 85.61448726 27 85 C27 81.37 27 77.74 27 74 C31.62 74 36.24 74 41 74 C41 69.38 41 64.76 41 60 C37.2890625 60.04882812 37.2890625 60.04882812 33.578125 60.09765625 C31.2181162 60.00826198 29.25501476 59.66912821 27 59 C27 56.36 27 53.72 27 51 C33.93 51 40.86 51 48 51 C48 46.05 48 41.1 48 36 C46.535625 36.020625 45.07125 36.04125 43.5625 36.0625 C38.55255611 36.13306259 34.10692365 35.56743596 29 35 C29 26.75 29 18.5 29 10 C19.43 10 9.86 10 0 10 C0 6.7 0 3.4 0 0 Z M44 61 C43.34 66.28 42.68 71.56 42 77 C46.29 77 50.58 77 55 77 C56.21043546 71.25090928 56.21043546 71.25090928 55 66 C52.0999475 64.25829702 52.0999475 64.25829702 49 63 C48.34 62.34 47.68 61.68 47 61 C46.01 61 45.02 61 44 61 Z " fill="#FCFCFC" transform="translate(286,0)"/>
<path d="M0 0 C26.33490566 0 26.33490566 0 33.6875 0.3125 C34.56470703 0.33505859 35.44191406 0.35761719 36.34570312 0.38085938 C37.60350586 0.4340332 37.60350586 0.4340332 38.88671875 0.48828125 C39.97279419 0.52755737 39.97279419 0.52755737 41.08081055 0.56762695 C43.74706573 1.16830599 44.51690137 1.66639728 46 4 C46.29851631 6.88340471 46.42032475 9.54619635 46.3984375 12.4296875 C46.40130768 13.257034 46.40417786 14.08438049 46.40713501 14.9367981 C46.40917605 16.68687626 46.40364336 18.43697722 46.39111328 20.18701172 C46.37510028 22.85827083 46.3909389 25.52800759 46.41015625 28.19921875 C46.40817303 29.90104499 46.40432771 31.60287029 46.3984375 33.3046875 C46.40754654 34.49866653 46.40754654 34.49866653 46.4168396 35.71676636 C46.36027184 40.20754781 46.10849378 43.4744595 43 47 C41.68 47 40.36 47 39 47 C39.680625 48.6396875 39.680625 48.6396875 40.375 50.3125 C40.63023438 50.92738281 40.88546875 51.54226562 41.1484375 52.17578125 C42.06806692 54.26533932 42.06806692 54.26533932 44 57 C44 58.32 44 59.64 44 61 C42.44240657 61.53532823 40.87861955 62.05265378 39.3125 62.5625 C38.44238281 62.85253906 37.57226562 63.14257812 36.67578125 63.44140625 C33.63682975 64.0758151 31.92075734 64.04897051 29 63 C24.99837633 58.79475388 22.30023615 53.85460493 22 48 C20.02 48 18.04 48 16 48 C16 52.95 16 57.9 16 63 C11 64 11 64 0 64 C0 42.88 0 21.76 0 0 Z " fill="#060606" transform="translate(45,36)"/>
<path d="M0 0 C0.80515045 -0.00857025 1.6103009 -0.0171405 2.43984985 -0.02597046 C4.14280438 -0.03745253 5.84585699 -0.03846067 7.54882812 -0.02978516 C10.14884949 -0.02347442 12.74429376 -0.07032697 15.34375 -0.12109375 C16.99999427 -0.12564117 18.65625075 -0.12704605 20.3125 -0.125 C21.08661224 -0.14341949 21.86072449 -0.16183899 22.65829468 -0.18081665 C26.56248272 -0.11425546 28.62847602 0.48365529 31.78833008 2.80371094 C35.28353675 7.82501592 34.39699177 14.25385254 34.27734375 20.09375 C34.27026901 21.39482697 34.26319427 22.69590393 34.25590515 24.03640747 C34.23690206 27.47933823 34.18786286 30.92119808 34.13238525 34.3637085 C34.08104583 37.88294999 34.05836005 41.40236619 34.03320312 44.921875 C33.97973435 51.81558588 33.89185564 58.70841237 33.7890625 65.6015625 C28.5090625 65.6015625 23.2290625 65.6015625 17.7890625 65.6015625 C17.7890625 59.0015625 17.7890625 52.4015625 17.7890625 45.6015625 C12.8390625 45.6015625 7.8890625 45.6015625 2.7890625 45.6015625 C2.7890625 52.2015625 2.7890625 58.8015625 2.7890625 65.6015625 C-2.4909375 65.6015625 -7.7709375 65.6015625 -13.2109375 65.6015625 C-13.30471287 53.51175293 -13.02446921 41.46764101 -12.52124023 29.38818359 C-12.43851271 27.3425276 -12.36214274 25.29660579 -12.29174805 23.25048828 C-12.18862901 20.2574286 -12.06716629 17.26562102 -11.94140625 14.2734375 C-11.91314255 13.35995544 -11.88487885 12.44647339 -11.85575867 11.50531006 C-11.694542 8.06762519 -11.46789285 5.24039639 -10.1784668 2.03466797 C-7.04659618 -0.24651835 -3.73005786 -0.00873753 0 0 Z " fill="#070707" transform="translate(119.2109375,35.3984375)"/>
<path d="M0 0 C5.94 0 11.88 0 18 0 C20 4 20 4 20 7 C20.66 7 21.32 7 22 7 C22.67528223 8.57967807 23.33989694 10.16391903 24 11.75 C24.37125 12.63171875 24.7425 13.5134375 25.125 14.421875 C26 17 26 17 26 21 C26.99 21.33 27.98 21.66 29 22 C29.33 23.32 29.66 24.64 30 26 C30.33 17.42 30.66 8.84 31 0 C36.94 0 42.88 0 49 0 C49.04506131 10.43491171 48.9136233 20.84963605 48.62768555 31.28051758 C48.56228633 33.69538996 48.50269128 36.11036244 48.44335938 38.52539062 C48.22137695 47.05258901 47.81341342 55.50358927 47 64 C42.05 64 37.1 64 32 64 C26 51.25 26 51.25 26 49 C25.34 49 24.68 49 24 49 C23.60167969 47.96939453 23.60167969 47.96939453 23.1953125 46.91796875 C22.84210938 46.01691406 22.48890625 45.11585937 22.125 44.1875 C21.77695313 43.29417969 21.42890625 42.40085938 21.0703125 41.48046875 C20.01167845 38.82288409 20.01167845 38.82288409 18 36 C18 35.01 18 34.02 18 33 C17.34 33 16.68 33 16 33 C16 42.9 16 52.8 16 63 C10 64 10 64 0 64 C0 42.88 0 21.76 0 0 Z " fill="#050505" transform="translate(170,36)"/>
<path d="M0 0 C0.83426514 -0.00953201 1.66853027 -0.01906403 2.52807617 -0.02888489 C3.43017822 -0.02797348 4.33228027 -0.02706207 5.26171875 -0.02612305 C6.18637939 -0.03040817 7.11104004 -0.0346933 8.0637207 -0.03910828 C10.02066223 -0.04485682 11.97762514 -0.04534799 13.93457031 -0.04101562 C16.93721746 -0.03785443 19.93888095 -0.06131242 22.94140625 -0.08666992 C24.8398425 -0.08894265 26.73828141 -0.08964654 28.63671875 -0.08862305 C29.5388208 -0.09783279 30.44092285 -0.10704254 31.37036133 -0.11653137 C32.62175903 -0.10718819 32.62175903 -0.10718819 33.8984375 -0.09765625 C34.63408936 -0.09828568 35.36974121 -0.0989151 36.12768555 -0.0995636 C37.94921875 0.2746582 37.94921875 0.2746582 39.94921875 3.2746582 C40.17626953 5.359375 40.17626953 5.359375 40.14453125 7.72387695 C40.13808594 8.57143555 40.13164062 9.41899414 40.125 10.29223633 C40.10824219 11.17331055 40.09148437 12.05438477 40.07421875 12.9621582 C40.06519531 13.85483398 40.05617188 14.74750977 40.046875 15.66723633 C40.0233179 17.86982486 39.98744719 20.07227546 39.94921875 22.2746582 C34.33921875 22.2746582 28.72921875 22.2746582 22.94921875 22.2746582 C22.94921875 19.3046582 22.94921875 16.3346582 22.94921875 13.2746582 C18.98921875 13.2746582 15.02921875 13.2746582 10.94921875 13.2746582 C10.94921875 26.1446582 10.94921875 39.0146582 10.94921875 52.2746582 C14.90921875 52.2746582 18.86921875 52.2746582 22.94921875 52.2746582 C22.94921875 49.6346582 22.94921875 46.9946582 22.94921875 44.2746582 C20.96921875 44.2746582 18.98921875 44.2746582 16.94921875 44.2746582 C16.94921875 39.9846582 16.94921875 35.6946582 16.94921875 31.2746582 C20.24137113 31.19399748 23.53156453 31.13432446 26.82421875 31.0871582 C27.76136719 31.06202148 28.69851563 31.03688477 29.6640625 31.01098633 C31.00791016 30.99648437 31.00791016 30.99648437 32.37890625 30.98168945 C33.20632324 30.965979 34.03374023 30.95026855 34.88623047 30.93408203 C35.5670166 31.04647217 36.24780273 31.1588623 36.94921875 31.2746582 C40.18067092 36.12183646 39.2771151 41.45300712 39.26171875 47.1496582 C39.27783203 48.33430664 39.29394531 49.51895508 39.31054688 50.73950195 C39.31119141 51.88290039 39.31183594 53.02629883 39.3125 54.2043457 C39.31548096 55.2483252 39.31846191 56.29230469 39.3215332 57.36791992 C38.87030159 60.89078132 38.37421993 62.64591291 35.94921875 65.2746582 C33.01736081 65.76780211 30.66895962 65.9301554 27.73828125 65.8684082 C26.9331308 65.86844849 26.12798035 65.86848877 25.2984314 65.86853027 C23.59535927 65.86317023 21.89228819 65.84556646 20.18945312 65.81665039 C17.59037098 65.77491756 14.9938908 65.77557062 12.39453125 65.7824707 C10.73826333 65.77197341 9.08200874 65.75903241 7.42578125 65.7434082 C6.65166901 65.74320679 5.87755676 65.74300537 5.07998657 65.74279785 C0.49442978 65.64294284 -2.45211221 65.15854166 -6.05078125 62.2746582 C-6.66551208 59.64952087 -6.66551208 59.64952087 -6.65014648 56.45800781 C-6.65622421 55.26344467 -6.66230194 54.06888153 -6.66856384 52.83811951 C-6.64903152 51.54745071 -6.62949921 50.25678192 -6.609375 48.92700195 C-6.60512461 47.59087077 -6.60279629 46.25473221 -6.60231018 44.91859436 C-6.59614537 42.1198678 -6.57344924 39.32194183 -6.5378418 36.5234375 C-6.49252462 32.93299347 -6.47781378 29.34327375 -6.47410488 25.75257015 C-6.46968027 22.99447969 -6.45438436 20.23654183 -6.43522835 17.47851753 C-6.42201115 15.50978145 -6.41379175 13.54101388 -6.40562439 11.57225037 C-6.38963699 10.38083939 -6.3736496 9.18942841 -6.35717773 7.96191406 C-6.34653793 6.90951035 -6.33589813 5.85710663 -6.32493591 4.77281189 C-5.85235454 0.46655323 -3.8854743 0.02433475 0 0 Z " fill="#080808" transform="translate(241.05078125,35.725341796875)"/>
<path d="M0 0 C14.625 0 14.625 0 19.73828125 0.21875 C20.82431641 0.26386719 21.91035156 0.30898438 23.02929688 0.35546875 C24.65448242 0.42701172 24.65448242 0.42701172 26.3125 0.5 C27.44623047 0.54769531 28.57996094 0.59539063 29.74804688 0.64453125 C32.49880127 0.76059684 35.24941691 0.87994337 38 1 C38 5.95 38 10.9 38 16 C31.07 16 24.14 16 17 16 C17 18.64 17 21.28 17 24 C23.93 24.495 23.93 24.495 31 25 C31 29.62 31 34.24 31 39 C26.38 39 21.76 39 17 39 C17 42.63 17 46.26 17 50 C24.26 50.33 31.52 50.66 39 51 C39.495 58.425 39.495 58.425 40 66 C26.8 66 13.6 66 0 66 C0 44.22 0 22.44 0 0 Z " fill="#040404" transform="translate(296,35)"/>
<path d="M0 0 C0.33 0 0.66 0 1 0 C1 8.91 1 17.82 1 27 C2.32 27 3.64 27 5 27 C5.495 25.515 5.495 25.515 6 24 C6 45.12 6 66.24 6 88 C13.92 87.505 13.92 87.505 22 87 C22 77.1 22 67.2 22 57 C22.66 57 23.32 57 24 57 C25.0098473 58.91149668 26.00754495 60.82941569 27 62.75 C27.556875 63.81734375 28.11375 64.8846875 28.6875 65.984375 C30 69 30 69 30 73 C30.66 73 31.32 73 32 73 C33.00460531 75.12282669 34.00355602 77.24833021 35 79.375 C35.556875 80.55835937 36.11375 81.74171875 36.6875 82.9609375 C38 86 38 86 38 88 C42.95 88 47.9 88 53 88 C53.01981934 86.56277588 53.03963867 85.12555176 53.06005859 83.64477539 C53.13646594 78.28278893 53.22512815 72.92106145 53.31738281 67.55932617 C53.35552791 65.24427424 53.39040532 62.92916597 53.421875 60.61401367 C53.46784087 57.27502381 53.52578247 53.93641706 53.5859375 50.59765625 C53.59748871 49.57229263 53.60903992 48.54692902 53.62094116 47.49049377 C53.74470382 41.38425241 54.47306611 35.91753851 56 30 C57.32 30 58.64 30 60 30 C60 34.62 60 39.24 60 44 C60.33 44 60.66 44 61 44 C61 43.01 61 42.02 61 41 C61.15623519 38.60346381 61.3242069 36.20768098 61.5 33.8125 C61.5928125 32.54019531 61.685625 31.26789062 61.78125 29.95703125 C61.8534375 28.98121094 61.925625 28.00539063 62 27 C64.97 27 67.94 27 71 27 C71.33 46.47 71.66 65.94 72 86 C76.43314589 88.21657294 79.68071494 88.25818442 84.484375 88.1953125 C85.29996887 88.1924826 86.11556274 88.18965271 86.95587158 88.18673706 C89.55406528 88.17556558 92.15191095 88.15046675 94.75 88.125 C96.51431793 88.11496627 98.27864128 88.10584111 100.04296875 88.09765625 C104.36211273 88.07563619 108.68099741 88.04112733 113 88 C113.99 86.02 113.99 86.02 115 84 C116.125 87.75 116.125 87.75 115 90 C109.25260242 90.12377604 103.50598373 90.21442248 97.75756836 90.2746582 C95.80300377 90.29977281 93.84853283 90.33387131 91.89428711 90.37719727 C89.08163332 90.43798434 86.27022298 90.46623983 83.45703125 90.48828125 C82.58601273 90.51408768 81.7149942 90.5398941 80.81758118 90.56648254 C76.65229359 90.56839978 74.52977089 90.33959672 70.953125 88.046875 C68.27933966 83.87576988 68.27044451 80.62519563 68.29296875 75.76171875 C68.27784744 74.88095169 68.26272614 74.00018463 68.24714661 73.09272766 C68.2042971 70.29072412 68.19543444 67.48979842 68.1875 64.6875 C68.1643535 62.78317453 68.13898784 60.87887464 68.11132812 58.97460938 C68.04850303 54.31631109 68.01614631 49.6586845 68 45 C66.68 45 65.36 45 64 45 C63.67 49.62 63.34 54.24 63 59 C62.01 59 61.02 59 60 59 C58.19380477 54.53763531 57.88341499 51.68965706 59 47 C58.01 47 57.02 47 56 47 C56.02320313 48.27230469 56.04640625 49.54460938 56.0703125 50.85546875 C56.22784814 63.70077677 55.44798375 76.23964321 54 89 C50.16275828 89.90413673 46.62497726 90.10576898 42.6875 90.0625 C41.61886719 90.05347656 40.55023438 90.04445313 39.44921875 90.03515625 C38.23685547 90.01775391 38.23685547 90.01775391 37 90 C28.92384855 75.26725817 28.92384855 75.26725817 27.125 70.125 C26.36888173 66.89690948 26.36888173 66.89690948 24 66 C24.01160156 67.25296875 24.02320313 68.5059375 24.03515625 69.796875 C24.04453716 71.44791517 24.05363704 73.09895696 24.0625 74.75 C24.07087891 75.575 24.07925781 76.4 24.08789062 77.25 C24.09111328 78.04921875 24.09433594 78.8484375 24.09765625 79.671875 C24.10289307 80.4050293 24.10812988 81.13818359 24.11352539 81.89355469 C23.99565861 84.08055378 23.71538093 85.92864063 23 88 C19.70039859 89.6498007 16.00872116 89.38258361 12.375 89.5625 C11.57320313 89.60568359 10.77140625 89.64886719 9.9453125 89.69335938 C7.9637489 89.79951457 5.98189729 89.90026855 4 90 C2.61773984 87.23547967 2.90474613 84.9538637 2.9375 81.875 C2.94652344 80.77929688 2.95554688 79.68359375 2.96484375 78.5546875 C2.97644531 77.71164063 2.98804688 76.86859375 3 76 C1.68 76.99 0.36 77.98 -1 79 C-1.50435694 77.0636296 -2.00333874 75.12585854 -2.5 73.1875 C-2.7784375 72.10855469 -3.056875 71.02960938 -3.34375 69.91796875 C-4 67 -4 67 -4 64 C-5.32 64 -6.64 64 -8 64 C-7.99476318 64.71655762 -7.98952637 65.43311523 -7.98413086 66.17138672 C-7.96339333 69.40591562 -7.95035016 72.64043056 -7.9375 75.875 C-7.92912109 77.00292969 -7.92074219 78.13085938 -7.91210938 79.29296875 C-7.90888672 80.36933594 -7.90566406 81.44570312 -7.90234375 82.5546875 C-7.89710693 83.54968262 -7.89187012 84.54467773 -7.88647461 85.56982422 C-8 88 -8 88 -9 90 C-15.93 90 -22.86 90 -30 90 C-31 88 -31 88 -31.4375 85.625 C-31.97605433 83.11174645 -32.75874406 81.23426069 -34 79 C-34.99 79 -35.98 79 -37 79 C-38.32 82.63 -39.64 86.26 -41 90 C-46.94 90 -52.88 90 -59 90 C-59 87.36 -59 84.72 -59 82 C-58.67 82 -58.34 82 -58 82 C-58 84.31 -58 86.62 -58 89 C-52.72 89 -47.44 89 -42 89 C-42 82.4 -42 75.8 -42 69 C-37.05 69 -32.1 69 -27 69 C-27 75.6 -27 82.2 -27 89 C-21.72 89 -16.44 89 -11 89 C-11.08548292 81.35900809 -11.17922319 73.71820329 -11.28752708 66.07750225 C-11.3374857 62.52965396 -11.38381555 58.98183537 -11.421875 55.43383789 C-11.46578269 51.35543986 -11.5254323 47.27740455 -11.5859375 43.19921875 C-11.59748871 41.92414963 -11.60903992 40.64908051 -11.62094116 39.33537292 C-11.64081085 38.15437515 -11.66068054 36.97337738 -11.68115234 35.7565918 C-11.69447601 34.71512497 -11.70779968 33.67365814 -11.7215271 32.60063171 C-11.82217776 29.7651949 -11.82217776 29.7651949 -14 27 C-9.38 27 -4.76 27 0 27 C0 18.09 0 9.18 0 0 Z " fill="#B3B3B3" transform="translate(164,12)"/>
<path d="M0 0 C4.62 0 9.24 0 14 0 C14.02296866 3.93274531 14.04287826 7.86531945 14.05493164 11.7980957 C14.06242729 13.79314768 14.07513345 15.78817786 14.08789062 17.78320312 C14.09111328 19.03681641 14.09433594 20.29042969 14.09765625 21.58203125 C14.10289307 22.73936768 14.10812988 23.8967041 14.11352539 25.08911133 C14 28 14 28 13 31 C14.32 30.67 15.64 30.34 17 30 C16.67 29.34 16.34 28.68 16 28 C15.91456105 25.89471067 15.89285275 23.78668843 15.90234375 21.6796875 C15.90556641 20.42285156 15.90878906 19.16601562 15.91210938 17.87109375 C15.92048828 16.55238281 15.92886719 15.23367187 15.9375 13.875 C15.94251511 12.53515789 15.94707799 11.195314 15.95117188 9.85546875 C15.96298905 6.57029343 15.98092499 3.28514119 16 0 C24.91 0 33.82 0 43 0 C43 9.9 43 19.8 43 30 C42.505 28.02 42.505 28.02 42 26 C39.69 26 37.38 26 35 26 C35 26.99 35 27.98 35 29 C32.69 29.66 30.38 30.32 28 31 C28 32.32 28 33.64 28 35 C23.93631321 35.77403558 20.13574827 36.0984702 16 36 C16 36.66 16 37.32 16 38 C15.34 38 14.68 38 14 38 C13.649375 36.88625 13.29875 35.7725 12.9375 34.625 C12.19669368 32.66818521 12.19669368 32.66818521 11 31 C7.44107712 29.46954015 7.44107712 29.46954015 4 29 C5.32 28.67 6.64 28.34 8 28 C7.01 27.01 6.02 26.02 5 25 C4.01 25.33 3.02 25.66 2 26 C1.67 27.98 1.34 29.96 1 32 C0.67 32 0.34 32 0 32 C0 21.44 0 10.88 0 0 Z " fill="#FEFEFE" transform="translate(0,71)"/>
<path d="M0 0 C0.33 0 0.66 0 1 0 C1.4640625 1.7015625 1.4640625 1.7015625 1.9375 3.4375 C2.62924531 6.78775099 2.62924531 6.78775099 4 8 C5.92667507 8.08748207 7.85651861 8.10697334 9.78515625 8.09765625 C11.53989258 8.09282227 11.53989258 8.09282227 13.33007812 8.08789062 C14.56177734 8.07951172 15.79347656 8.07113281 17.0625 8.0625 C18.29806641 8.05798828 19.53363281 8.05347656 20.80664062 8.04882812 C23.87114117 8.03699608 26.93554721 8.02051173 30 8 C29.67 9.32 29.34 10.64 29 12 C27.97845825 11.94670532 27.97845825 11.94670532 26.9362793 11.89233398 C23.85362135 11.73482208 20.77060171 11.58606112 17.6875 11.4375 C16.61564453 11.38142578 15.54378906 11.32535156 14.43945312 11.26757812 C12.89741211 11.19506836 12.89741211 11.19506836 11.32421875 11.12109375 C10.37635498 11.0739624 9.42849121 11.02683105 8.4519043 10.97827148 C5.86066975 10.87543867 5.86066975 10.87543867 3 12 C3.00523682 12.57443848 3.01047363 13.14887695 3.01586914 13.74072266 C3.03678576 16.36880377 3.04970659 18.99686729 3.0625 21.625 C3.07087891 22.52863281 3.07925781 23.43226562 3.08789062 24.36328125 C3.10500033 29.05133923 2.83124092 33.37201003 2 38 C2.33 38.33 2.66 38.66 3 39 C3.08631874 40.34267413 3.10706473 41.68974322 3.09765625 43.03515625 C3.09443359 43.84404297 3.09121094 44.65292969 3.08789062 45.48632812 C3.07532227 46.7615332 3.07532227 46.7615332 3.0625 48.0625 C3.05798828 48.91650391 3.05347656 49.77050781 3.04882812 50.65039062 C3.03700373 52.76695663 3.01906769 54.88348685 3 57 C1.515 57.495 1.515 57.495 0 58 C-0.33 56.68 -0.66 55.36 -1 54 C-2.32 54 -3.64 54 -5 54 C-5.33 59.28 -5.66 64.56 -6 70 C-6.33 70 -6.66 70 -7 70 C-7.84681133 64.91913204 -8.09038099 60.15171623 -8 55 C-9.00160156 55.01160156 -10.00320313 55.02320313 -11.03515625 55.03515625 C-12.37760228 55.04454398 -13.72005036 55.05364312 -15.0625 55.0625 C-17.02896484 55.07990234 -17.02896484 55.07990234 -19.03515625 55.09765625 C-22.8163519 55.00452335 -26.27920707 54.61448726 -30 54 C-30 50.37 -30 46.74 -30 43 C-25.38 43 -20.76 43 -16 43 C-16 38.38 -16 33.76 -16 29 C-19.7109375 29.04882812 -19.7109375 29.04882812 -23.421875 29.09765625 C-25.7818838 29.00826198 -27.74498524 28.66912821 -30 28 C-30 25.36 -30 22.72 -30 20 C-23.07 20 -16.14 20 -9 20 C-9 15.05 -9 10.1 -9 5 C-8.34 5 -7.68 5 -7 5 C-6.67 5.99 -6.34 6.98 -6 8 C-4.02 8 -2.04 8 0 8 C0 5.36 0 2.72 0 0 Z M-13 30 C-13.66 35.28 -14.32 40.56 -15 46 C-10.71 46 -6.42 46 -2 46 C-0.78956454 40.25090928 -0.78956454 40.25090928 -2 35 C-4.9000525 33.25829702 -4.9000525 33.25829702 -8 32 C-8.66 31.34 -9.32 30.68 -10 30 C-10.99 30 -11.98 30 -13 30 Z " fill="#EEEEEE" transform="translate(343,31)"/>
<path d="M0 0 C1.16208984 -0.00128906 2.32417969 -0.00257812 3.52148438 -0.00390625 C4.74029297 -0.00003906 5.95910156 0.00382813 7.21484375 0.0078125 C8.43751953 0.00394531 9.66019531 0.00007812 10.91992188 -0.00390625 C12.08072266 -0.00261719 13.24152344 -0.00132813 14.4375 0 C15.5087915 0.00112793 16.58008301 0.00225586 17.68383789 0.00341797 C20.15234375 0.1328125 20.15234375 0.1328125 21.15234375 1.1328125 C21.23948206 2.84053608 21.25934382 4.55179899 21.25 6.26171875 C21.24677734 7.29619141 21.24355469 8.33066406 21.24023438 9.39648438 C21.23185547 10.48509766 21.22347656 11.57371094 21.21484375 12.6953125 C21.21033203 13.78779297 21.20582031 14.88027344 21.20117188 16.00585938 C21.18934215 18.71486682 21.17140606 21.4238463 21.15234375 24.1328125 C15.54234375 24.1328125 9.93234375 24.1328125 4.15234375 24.1328125 C3.49234375 25.4528125 2.83234375 26.7728125 2.15234375 28.1328125 C-1.14765625 28.1328125 -4.44765625 28.1328125 -7.84765625 28.1328125 C-7.84765625 19.2228125 -7.84765625 10.3128125 -7.84765625 1.1328125 C-5.14669548 -0.21766789 -3.02039108 0.00317673 0 0 Z " fill="#FDFDFD" transform="translate(232.84765625,10.8671875)"/>
<path d="M0 0 C8.91 0 17.82 0 27 0 C27 8.91 27 17.82 27 27 C18.09 27 9.18 27 0 27 C0 18.09 0 9.18 0 0 Z " fill="#FEFEFE" transform="translate(16,42)"/>
<path d="M0 0 C1.12591553 0.00523682 2.25183105 0.01047363 3.41186523 0.01586914 C4.50571533 0.0183667 5.59956543 0.02086426 6.7265625 0.0234375 C8.82729126 0.03709351 8.82729126 0.03709351 10.97045898 0.05102539 C17.62202148 0.08196289 17.62202148 0.08196289 24.40795898 0.11352539 C24.40795898 9.68352539 24.40795898 19.25352539 24.40795898 29.11352539 C23.08795898 29.11352539 21.76795898 29.11352539 20.40795898 29.11352539 C20.40795898 27.46352539 20.40795898 25.81352539 20.40795898 24.11352539 C13.80795898 24.44352539 7.20795898 24.77352539 0.40795898 25.11352539 C0.40795898 26.10352539 0.40795898 27.09352539 0.40795898 28.11352539 C-0.91204102 28.11352539 -2.23204102 28.11352539 -3.59204102 28.11352539 C-3.6209044 23.63437211 -3.63879289 19.15524248 -3.65454102 14.67602539 C-3.66291992 13.39663086 -3.67129883 12.11723633 -3.67993164 10.79907227 C-3.6831543 9.58413086 -3.68637695 8.36918945 -3.68969727 7.11743164 C-3.69493408 5.99151611 -3.7001709 4.86560059 -3.70556641 3.70556641 C-3.55270048 0.21529211 -3.4902743 0.15286593 0 0 Z " fill="#FDFDFD" transform="translate(199.592041015625,10.886474609375)"/>
<path d="M0 0 C9.24 0 18.48 0 28 0 C28 7.59 28 15.18 28 23 C21.73 23 15.46 23 9 23 C9 24.32 9 25.64 9 27 C5.7 27 2.4 27 -1 27 C-0.67 18.09 -0.34 9.18 0 0 Z " fill="#FDFDFD" transform="translate(286,12)"/>
<path d="M0 0 C9.24 0 18.48 0 28 0 C28.020625 3.774375 28.04125 7.54875 28.0625 11.4375 C28.071604 12.62915771 28.08070801 13.82081543 28.09008789 15.04858398 C28.09258545 15.98001221 28.09508301 16.91144043 28.09765625 17.87109375 C28.10551147 19.30859985 28.10551147 19.30859985 28.11352539 20.77514648 C28 23 28 23 27 24 C25.36527118 24.08700342 23.72685945 24.10701063 22.08984375 24.09765625 C21.10048828 24.09443359 20.11113281 24.09121094 19.09179688 24.08789062 C18.05087891 24.07951172 17.00996094 24.07113281 15.9375 24.0625 C14.89271484 24.05798828 13.84792969 24.05347656 12.77148438 24.04882812 C10.1809334 24.03699913 7.59049441 24.02051689 5 24 C4.67 24.99 4.34 25.98 4 27 C2.68 27 1.36 27 0 27 C0 18.09 0 9.18 0 0 Z " fill="#FEFEFE" transform="translate(106,12)"/>
<path d="M0 0 C9.24 0 18.48 0 28 0 C28 9.24 28 18.48 28 28 C27.67 27.34 27.34 26.68 27 26 C23.5179433 24.28468987 20.55530277 23.72123869 16.69921875 23.5859375 C15.37796997 23.53252197 15.37796997 23.53252197 14.0300293 23.47802734 C12.92699463 23.44402832 11.82395996 23.4100293 10.6875 23.375 C7.160625 23.25125 3.63375 23.1275 0 23 C0 15.41 0 7.82 0 0 Z " fill="#FEFEFE" transform="translate(255,12)"/>
<path d="M0 0 C2.97 0 5.94 0 9 0 C9.33 19.47 9.66 38.94 10 59 C14.43314589 61.21657294 17.68071494 61.25818442 22.484375 61.1953125 C23.29996887 61.1924826 24.11556274 61.18965271 24.95587158 61.18673706 C27.55406528 61.17556558 30.15191095 61.15046675 32.75 61.125 C34.51431793 61.11496627 36.27864128 61.10584111 38.04296875 61.09765625 C42.36211273 61.07563619 46.68099741 61.04112733 51 61 C51.66 59.68 52.32 58.36 53 57 C54.125 60.75 54.125 60.75 53 63 C47.25260242 63.12377604 41.50598373 63.21442248 35.75756836 63.2746582 C33.80300377 63.29977281 31.84853283 63.33387131 29.89428711 63.37719727 C27.08163332 63.43798434 24.27022298 63.46623983 21.45703125 63.48828125 C20.58601273 63.51408768 19.7149942 63.5398941 18.81758118 63.56648254 C14.65229359 63.56839978 12.52977089 63.33959672 8.953125 61.046875 C6.27933966 56.87576988 6.27044451 53.62519563 6.29296875 48.76171875 C6.27028679 47.44056816 6.27028679 47.44056816 6.24714661 46.09272766 C6.2042971 43.29072412 6.19543444 40.48979842 6.1875 37.6875 C6.1643535 35.78317453 6.13898784 33.87887464 6.11132812 31.97460938 C6.04850303 27.31631109 6.01614631 22.6586845 6 18 C4.68 18 3.36 18 2 18 C1.67 22.62 1.34 27.24 1 32 C0.01 32 -0.98 32 -2 32 C-3.80619523 27.53763531 -4.11658501 24.68965706 -3 20 C-4.32 20 -5.64 20 -7 20 C-7.02691685 17.54159395 -7.04679802 15.08348118 -7.0625 12.625 C-7.07087891 11.92632812 -7.07925781 11.22765625 -7.08789062 10.5078125 C-7.11328125 5.2265625 -7.11328125 5.2265625 -6 3 C-4.68 3 -3.36 3 -2 3 C-2 7.62 -2 12.24 -2 17 C-1.67 17 -1.34 17 -1 17 C-1 16.01 -1 15.02 -1 14 C-0.84376481 11.60346381 -0.6757931 9.20768098 -0.5 6.8125 C-0.4071875 5.54019531 -0.314375 4.26789062 -0.21875 2.95703125 C-0.1465625 1.98121094 -0.074375 1.00539062 0 0 Z " fill="#FCFCFC" transform="translate(226,39)"/>
<path d="M0 0 C4.29 0 8.58 0 13 0 C13 9.57 13 19.14 13 29 C4 32 4 32 0 31 C-0.99 30.34 -1.98 29.68 -3 29 C-2.86722656 27.82824219 -2.73445313 26.65648437 -2.59765625 25.44921875 C-1.64295257 16.97238851 -0.728566 8.49993669 0 0 Z " fill="#FDFDFD" transform="translate(282,71)"/>
<path d="M0 0 C4.62 0 9.24 0 14 0 C14 8.91 14 17.82 14 27 C9.38 27 4.76 27 0 27 C0 18.09 0 9.18 0 0 Z " fill="#FEFEFE" transform="translate(0,42)"/>
<path d="M0 0 C4.29 0 8.58 0 13 0 C13 9.57 13 19.14 13 29 C9.04 29 5.08 29 1 29 C0.3034025 19.30983126 -0.11049226 9.72331868 0 0 Z " fill="#FCFCFC" transform="translate(91,40)"/>
<path d="M0 0 C1.32 0 2.64 0 4 0 C4 5.61 4 11.22 4 17 C3.01 17.33 2.02 17.66 1 18 C0.67 16.68 0.34 15.36 0 14 C-1.32 14 -2.64 14 -4 14 C-4.33 19.28 -4.66 24.56 -5 30 C-5.33 30 -5.66 30 -6 30 C-6.91657981 24.61509359 -7.11138159 19.45769811 -7 14 C-7.845625 14.01160156 -8.69125 14.02320312 -9.5625 14.03515625 C-15.81560618 14.08489687 -21.82005931 13.96940246 -28 13 C-28 10.03 -28 7.06 -28 4 C-23.38 4 -18.76 4 -14 4 C-14 4.66 -14 5.32 -14 6 C-12.1746875 5.7215625 -12.1746875 5.7215625 -10.3125 5.4375 C-6.97022061 5.01006818 -4.28031583 5.07741117 -1 6 C-0.67 4.02 -0.34 2.04 0 0 Z " fill="#FBFBFB" transform="translate(342,71)"/>
<path d="M0 0 C1.64574566 -0.02688151 3.29161413 -0.04634123 4.9375 -0.0625 C5.85402344 -0.07410156 6.77054688 -0.08570313 7.71484375 -0.09765625 C10 0 10 0 11 1 C11.08758003 2.99964982 11.10696576 5.0023611 11.09765625 7.00390625 C11.09443359 8.21884766 11.09121094 9.43378906 11.08789062 10.68554688 C11.07951172 11.96494141 11.07113281 13.24433594 11.0625 14.5625 C11.05798828 15.84576172 11.05347656 17.12902344 11.04882812 18.45117188 C11.03699545 21.63416022 11.02051068 24.81705762 11 28 C7.34811918 29.07174763 4.73567172 28.76411467 1 28 C-0.0592918 24.82212459 -0.11458939 22.57411057 -0.09765625 19.23828125 C-0.09443359 18.12001953 -0.09121094 17.00175781 -0.08789062 15.84960938 C-0.07951172 14.68236328 -0.07113281 13.51511719 -0.0625 12.3125 C-0.05573242 10.54422852 -0.05573242 10.54422852 -0.04882812 8.74023438 C-0.03703273 5.82677211 -0.0205727 2.91341137 0 0 Z " fill="#FBFBFB" transform="translate(153,41)"/>
<path d="M0 0 C0.33 0 0.66 0 1 0 C1.85303485 5.93029825 2.19203228 11.69865686 2.1875 17.6875 C2.18814453 18.58364014 2.18878906 19.47978027 2.18945312 20.40307617 C2.11349875 30.32979516 1.11836757 40.14438583 0 50 C-3.83724172 50.90413673 -7.37502274 51.10576898 -11.3125 51.0625 C-12.91544922 51.04896484 -12.91544922 51.04896484 -14.55078125 51.03515625 C-15.35902344 51.02355469 -16.16726562 51.01195312 -17 51 C-25.07615145 36.26725817 -25.07615145 36.26725817 -26.875 31.125 C-27.63111827 27.89690948 -27.63111827 27.89690948 -30 27 C-29.98839844 28.25296875 -29.97679687 29.5059375 -29.96484375 30.796875 C-29.95546284 32.44791517 -29.94636296 34.09895696 -29.9375 35.75 C-29.92912109 36.575 -29.92074219 37.4 -29.91210938 38.25 C-29.90727539 39.44882813 -29.90727539 39.44882813 -29.90234375 40.671875 C-29.89448853 41.77160645 -29.89448853 41.77160645 -29.88647461 42.89355469 C-30.00434139 45.08055378 -30.28461907 46.92864063 -31 49 C-36.3748385 51.68741925 -42.99074787 50 -49 50 C-49 37.46 -49 24.92 -49 12 C-48.67 12 -48.34 12 -48 12 C-48 24.21 -48 36.42 -48 49 C-40.08 48.505 -40.08 48.505 -32 48 C-32 38.1 -32 28.2 -32 18 C-31.34 18 -30.68 18 -30 18 C-28.9901527 19.91149668 -27.99245505 21.82941569 -27 23.75 C-26.443125 24.81734375 -25.88625 25.8846875 -25.3125 26.984375 C-24 30 -24 30 -24 34 C-23.34 34 -22.68 34 -22 34 C-20.99539469 36.12282669 -19.99644398 38.24833021 -19 40.375 C-18.443125 41.55835938 -17.88625 42.74171875 -17.3125 43.9609375 C-16 47 -16 47 -16 49 C-11.05 49 -6.1 49 -1 49 C-0.67 32.83 -0.34 16.66 0 0 Z " fill="#AFAFAF" transform="translate(218,51)"/>
<path d="M0 0 C9.24 0 18.48 0 28 0 C28 3.3 28 6.6 28 10 C18.76 10 9.52 10 0 10 C0 6.7 0 3.4 0 0 Z " fill="#FEFEFE" transform="translate(255,0)"/>
<path d="M0 0 C9.24 0 18.48 0 28 0 C28 3.3 28 6.6 28 10 C18.76 10 9.52 10 0 10 C0 6.7 0 3.4 0 0 Z " fill="#FDFDFD" transform="translate(226,0)"/>
<path d="M0 0 C9.24 0 18.48 0 28 0 C28 3.3 28 6.6 28 10 C18.76 10 9.52 10 0 10 C0 6.7 0 3.4 0 0 Z " fill="#FEFEFE" transform="translate(166,0)"/>
<path d="M0 0 C9.24 0 18.48 0 28 0 C28 3.3 28 6.6 28 10 C18.76 10 9.52 10 0 10 C0 6.7 0 3.4 0 0 Z " fill="#FEFEFE" transform="translate(76,0)"/>
<path d="M0 0 C9.24 0 18.48 0 28 0 C28 3.3 28 6.6 28 10 C18.76 10 9.52 10 0 10 C0 6.7 0 3.4 0 0 Z " fill="#FEFEFE" transform="translate(46,0)"/>
<path d="M0 0 C9.24 0 18.48 0 28 0 C28 3.3 28 6.6 28 10 C18.76 10 9.52 10 0 10 C0 6.7 0 3.4 0 0 Z " fill="#FEFEFE" transform="translate(16,0)"/>
<path d="M0 0 C9.24 0 18.48 0 28 0 C28 3.3 28 6.6 28 10 C23.52084672 10.02886338 19.04171709 10.04675187 14.5625 10.0625 C13.28310547 10.07087891 12.00371094 10.07925781 10.68554688 10.08789062 C8.86313477 10.09272461 8.86313477 10.09272461 7.00390625 10.09765625 C5.87799072 10.10289307 4.7520752 10.10812988 3.59204102 10.11352539 C1 10 1 10 0 9 C0 6.03 0 3.06 0 0 Z " fill="#FEFEFE" transform="translate(315,0)"/>
<path d="M0 0 C9.24 0 18.48 0 28 0 C28 3.3 28 6.6 28 10 C23.52084672 10.02886338 19.04171709 10.04675187 14.5625 10.0625 C13.28310547 10.07087891 12.00371094 10.07925781 10.68554688 10.08789062 C8.86313477 10.09272461 8.86313477 10.09272461 7.00390625 10.09765625 C5.87799072 10.10289307 4.7520752 10.10812988 3.59204102 10.11352539 C1 10 1 10 0 9 C0 6.03 0 3.06 0 0 Z " fill="#FEFEFE" transform="translate(195,0)"/>
<path d="M0 0 C9.24 0 18.48 0 28 0 C28 2.97 28 5.94 28 9 C27 10 27 10 24.40795898 10.11352539 C23.28204346 10.10828857 22.15612793 10.10305176 20.99609375 10.09765625 C19.78115234 10.09443359 18.56621094 10.09121094 17.31445312 10.08789062 C16.03505859 10.07951172 14.75566406 10.07113281 13.4375 10.0625 C12.15423828 10.05798828 10.87097656 10.05347656 9.54882812 10.04882812 C6.36583978 10.03699545 3.18294238 10.02051068 0 10 C0 6.7 0 3.4 0 0 Z " fill="#FEFEFE" transform="translate(136,0)"/>
<path d="M0 0 C9.24 0 18.48 0 28 0 C28 3.3 28 6.6 28 10 C23.52084672 10.02886338 19.04171709 10.04675187 14.5625 10.0625 C13.28310547 10.07087891 12.00371094 10.07925781 10.68554688 10.08789062 C8.86313477 10.09272461 8.86313477 10.09272461 7.00390625 10.09765625 C5.87799072 10.10289307 4.7520752 10.10812988 3.59204102 10.11352539 C1 10 1 10 0 9 C0 6.03 0 3.06 0 0 Z " fill="#FEFEFE" transform="translate(106,0)"/>
<path d="M0 0 C9.24 0 18.48 0 28 0 C28 3.3 28 6.6 28 10 C19.09 10 10.18 10 1 10 C0 7 0 7 0 0 Z " fill="#FEFEFE" transform="translate(345,0)"/>
<path d="M0 0 C8.91 0 17.82 0 27 0 C27 3.3 27 6.6 27 10 C18.09 10 9.18 10 0 10 C0 6.7 0 3.4 0 0 Z " fill="#FEFEFE" transform="translate(286,0)"/>
<path d="M0 0 C2.97 0 5.94 0 9 0 C9 8.91 9 17.82 9 27 C5.7 27 2.4 27 -1 27 C-1.18451025 7.99544419 -1.18451025 7.99544419 0 0 Z " fill="#FEFEFE" transform="translate(286,42)"/>
<path d="M0 0 C3.96 0.33 7.92 0.66 12 1 C12 7.27 12 13.54 12 20 C8.04 20.33 4.08 20.66 0 21 C0 14.07 0 7.14 0 0 Z " fill="#E2E2E2" transform="translate(62,49)"/>
<path d="M0 0 C8 0 8 0 11 2 C11.99 1.34 12.98 0.68 14 0 C15 1 15 1 15.11352539 3.77563477 C15.10828857 4.98533936 15.10305176 6.19504395 15.09765625 7.44140625 C15.09443359 8.74658203 15.09121094 10.05175781 15.08789062 11.39648438 C15.07953401 12.7851569 15.07106905 14.17382877 15.0625 15.5625 C15.05748666 16.95507656 15.05292347 18.34765481 15.04882812 19.74023438 C15.03699434 23.1601987 15.0205088 26.58007844 15 30 C16.98 30 18.96 30 21 30 C21 30.33 21 30.66 21 31 C18.69 31 16.38 31 14 31 C12.61773984 28.23547967 12.90474613 25.9538637 12.9375 22.875 C12.94652344 21.77929688 12.95554688 20.68359375 12.96484375 19.5546875 C12.97644531 18.71164063 12.98804688 17.86859375 13 17 C11.68 17.99 10.36 18.98 9 20 C8.49564306 18.0636296 7.99666126 16.12585854 7.5 14.1875 C7.2215625 13.10855469 6.943125 12.02960938 6.65625 10.91796875 C6 8 6 8 6 5 C4.68 5 3.36 5 2 5 C2.01047363 5.71655762 2.02094727 6.43311523 2.03173828 7.17138672 C2.07321299 10.40588905 2.09929892 13.64033553 2.125 16.875 C2.14175781 18.00292969 2.15851563 19.13085938 2.17578125 20.29296875 C2.18222656 21.36933594 2.18867188 22.44570312 2.1953125 23.5546875 C2.20578613 24.54968262 2.21625977 25.54467773 2.22705078 26.56982422 C2 29 2 29 0 31 C0 20.77 0 10.54 0 0 Z " fill="#F5F5F5" transform="translate(154,71)"/>
<path d="M0 0 C3.96 0 7.92 0 12 0 C12 0.33 12 0.66 12 1 C8.37 1.33 4.74 1.66 1 2 C1 7.94 1 13.88 1 20 C1.99 20 2.98 20 4 20 C4.33 19.01 4.66 18.02 5 17 C8.63 17 12.26 17 16 17 C16 17.33 16 17.66 16 18 C12.7 18 9.4 18 6 18 C6 22.29 6 26.58 6 31 C7.98 31 9.96 31 12 31 C12 33.64 12 36.28 12 39 C8.04 39 4.08 39 0 39 C0 26.13 0 13.26 0 0 Z " fill="#E8E8E8" transform="translate(252,49)"/>
<path d="M0 0 C0.33 0 0.66 0 1 0 C1 21.78 1 43.56 1 66 C14.2 66 27.4 66 41 66 C41 66.33 41 66.66 41 67 C27.14 67 13.28 67 -1 67 C-1.33 66.34 -1.66 65.68 -2 65 C-1.34 65 -0.68 65 0 65 C0 55.43 0 45.86 0 36 C-4.29 36 -8.58 36 -13 36 C-12.979375 37.546875 -12.95875 39.09375 -12.9375 40.6875 C-12.92907532 47.15765474 -13.42653752 53.55878748 -14 60 C-14.33 60 -14.66 60 -15 60 C-15.02505615 59.25314941 -15.0501123 58.50629883 -15.07592773 57.73681641 C-15.19168213 54.36602733 -15.31450128 50.99553217 -15.4375 47.625 C-15.47681641 46.449375 -15.51613281 45.27375 -15.55664062 44.0625 C-15.59853516 42.94101563 -15.64042969 41.81953125 -15.68359375 40.6640625 C-15.72025146 39.62717285 -15.75690918 38.5902832 -15.79467773 37.52197266 C-15.84164223 35.00574834 -15.84164223 35.00574834 -17 33 C-15.02 33.33 -13.04 33.66 -11 34 C-11.33 25.09 -11.66 16.18 -12 7 C-11.34 7 -10.68 7 -10 7 C-10 15.91 -10 24.82 -10 34 C-6.7 34 -3.4 34 0 34 C0 22.78 0 11.56 0 0 Z " fill="#BCBCBC" transform="translate(295,35)"/>
<path d="M0 0 C0.66 0 1.32 0 2 0 C2 3.3 2 6.6 2 10 C11.24 10 20.48 10 30 10 C30 6.7 30 3.4 30 0 C30.33 0 30.66 0 31 0 C32.06841058 8.62415669 31.95347652 17.01860686 31.5625 25.6875 C31.51029297 26.97333984 31.45808594 28.25917969 31.40429688 29.58398438 C31.27593636 32.72298234 31.14104312 35.8615507 31 39 C30.67 39 30.34 39 30 39 C30 30.09 30 21.18 30 12 C20.76 12 11.52 12 2 12 C2 20.91 2 29.82 2 39 C1.67 39 1.34 39 1 39 C1 30.09 1 21.18 1 12 C-8.57 12 -18.14 12 -28 12 C-28 11.34 -28 10.68 -28 10 C-19.09 9.67 -10.18 9.34 -1 9 C-0.67 6.03 -0.34 3.06 0 0 Z " fill="#F1F1F1" transform="translate(164,0)"/>
<path d="M0 0 C3.96 0 7.92 0 12 0 C12 5.28 12 10.56 12 16 C8.04 16 4.08 16 0 16 C0 10.72 0 5.44 0 0 Z " fill="#E2E2E2" transform="translate(124,52)"/>
<path d="M0 0 C4.95 0 9.9 0 15 0 C15 0.33 15 0.66 15 1 C10.38 1 5.76 1 1 1 C1 22.12 1 43.24 1 65 C8.92 64.505 8.92 64.505 17 64 C17 59.05 17 54.1 17 49 C18.98 49 20.96 49 23 49 C23.64995297 50.41478135 24.29478722 51.83191487 24.9375 53.25 C25.47697266 54.43335937 25.47697266 54.43335937 26.02734375 55.640625 C26.90033279 57.75823698 27.51338508 59.76669362 28 62 C27.236875 61.195625 26.47375 60.39125 25.6875 59.5625 C23.20569102 56.83200976 23.20569102 56.83200976 20 56 C19.896875 57.27875 19.79375 58.5575 19.6875 59.875 C19.51171875 62.0546875 19.51171875 62.0546875 19 64 C16 66 16 66 0 66 C0 44.22 0 22.44 0 0 Z " fill="#888888" transform="translate(44,35)"/>
<path d="M0 0 C4.29 0 8.58 0 13 0 C13 6.6 13 13.2 13 20 C12.01 19.67 11.02 19.34 10 19 C10.0928125 17.9171875 10.0928125 17.9171875 10.1875 16.8125 C9.96105777 13.4158666 9.06745292 11.68003157 7 9 C6.01 9 5.02 9 4 9 C3.01 11.97 2.02 14.94 1 18 C0.67 18 0.34 18 0 18 C0 12.06 0 6.12 0 0 Z " fill="#F7F7F7" transform="translate(123,82)"/>
<path d="M0 0 C14.625 0 14.625 0 19.73828125 0.21875 C20.82431641 0.26386719 21.91035156 0.30898438 23.02929688 0.35546875 C24.65448242 0.42701172 24.65448242 0.42701172 26.3125 0.5 C27.44623047 0.54769531 28.57996094 0.59539063 29.74804688 0.64453125 C32.49881083 0.76059724 35.24944454 0.8791106 38 1 C38 1.33 38 1.66 38 2 C26.12 2.33 14.24 2.66 2 3 C1.67 23.46 1.34 43.92 1 65 C13.54 65 26.08 65 39 65 C39 63.02 39 61.04 39 59 C39.33 59 39.66 59 40 59 C40 61.31 40 63.62 40 66 C26.8 66 13.6 66 0 66 C0 44.22 0 22.44 0 0 Z " fill="#454545" transform="translate(296,35)"/>
<path d="M0 0 C0.99 0 1.98 0 3 0 C3 3.3 3 6.6 3 10 C12.57 10 22.14 10 32 10 C32 18.25 32 26.5 32 35 C34.97 35 37.94 35 41 35 C41 35.33 41 35.66 41 36 C36.05 36 31.1 36 26 36 C26 35.67 26 35.34 26 35 C27.65 35 29.3 35 31 35 C30.67 27.41 30.34 19.82 30 12 C11.19 12 -7.62 12 -27 12 C-26.67 11.34 -26.34 10.68 -26 10 C-17.42 10 -8.84 10 0 10 C0 6.7 0 3.4 0 0 Z " fill="#E7E7E7" transform="translate(283,0)"/>
<path d="M0 0 C4.62 0 9.24 0 14 0 C14 3.3 14 6.6 14 10 C9.38 10 4.76 10 0 10 C0 6.7 0 3.4 0 0 Z " fill="#FEFEFE" transform="translate(0,0)"/>
<path d="M0 0 C0.33 0 0.66 0 1 0 C1.33 19.47 1.66 38.94 2 59 C6.43314589 61.21657294 9.68071494 61.25818442 14.484375 61.1953125 C15.29996887 61.1924826 16.11556274 61.18965271 16.95587158 61.18673706 C19.55406528 61.17556558 22.15191095 61.15046675 24.75 61.125 C26.51431793 61.11496627 28.27864128 61.10584111 30.04296875 61.09765625 C34.36211273 61.07563619 38.68099741 61.04112733 43 61 C43.66 59.68 44.32 58.36 45 57 C46.125 60.75 46.125 60.75 45 63 C39.23424086 63.07418336 33.46875983 63.12861797 27.70263672 63.16479492 C25.74132447 63.17987695 23.78004592 63.20034547 21.81884766 63.22631836 C18.99893882 63.26272731 16.17947608 63.27973216 13.359375 63.29296875 C12.48319519 63.30845261 11.60701538 63.32393646 10.70428467 63.33988953 C9.47346161 63.34022942 9.47346161 63.34022942 8.21777344 63.34057617 C7.49829529 63.34723801 6.77881714 63.35389984 6.03753662 63.36076355 C3.24906224 62.86703995 1.95911811 62.04733737 0 60 C-0.48101807 57.36140442 -0.48101807 57.36140442 -0.45410156 54.15161133 C-0.45379944 52.9505928 -0.45349731 51.74957428 -0.45318604 50.51216125 C-0.43254089 49.21521835 -0.41189575 47.91827545 -0.390625 46.58203125 C-0.38316314 45.2411127 -0.37746994 43.90018324 -0.37347412 42.55924988 C-0.35821299 39.03262134 -0.31892849 35.50665344 -0.2746582 31.98028564 C-0.23371497 28.38082822 -0.21546522 24.78126387 -0.1953125 21.18164062 C-0.15243366 14.12082373 -0.08417745 7.06045503 0 0 Z " fill="#A5A5A5" transform="translate(234,39)"/>
<path d="M0 0 C1.32 0 2.64 0 4 0 C4 8.58 4 17.16 4 26 C2.68 26.33 1.36 26.66 0 27 C0 18.09 0 9.18 0 0 Z " fill="#FAFAFA" transform="translate(165,42)"/>
<path d="M0 0 C1.98 0 3.96 0 6 0 C6.66 1.98 7.32 3.96 8 6 C11.63 6.33 15.26 6.66 19 7 C19 7.99 19 8.98 19 10 C12.73 10 6.46 10 0 10 C0 6.7 0 3.4 0 0 Z " fill="#FDFDFD" transform="translate(375,0)"/>
<path d="M0 0 C0.66 0 1.32 0 2 0 C2 8.91 2 17.82 2 27 C5.3 27 8.6 27 12 27 C12 27.66 12 28.32 12 29 C7.71 29 3.42 29 -1 29 C-0.979375 30.546875 -0.95875 32.09375 -0.9375 33.6875 C-0.92907532 40.15765474 -1.42653752 46.55878748 -2 53 C-2.33 53 -2.66 53 -3 53 C-3.02505615 52.25314941 -3.0501123 51.50629883 -3.07592773 50.73681641 C-3.19168213 47.36602733 -3.31450128 43.99553217 -3.4375 40.625 C-3.47681641 39.449375 -3.51613281 38.27375 -3.55664062 37.0625 C-3.59853516 35.94101563 -3.64042969 34.81953125 -3.68359375 33.6640625 C-3.72025146 32.62717285 -3.75690918 31.5902832 -3.79467773 30.52197266 C-3.84164223 28.00574834 -3.84164223 28.00574834 -5 26 C-3.02 26.33 -1.04 26.66 1 27 C0.67 18.09 0.34 9.18 0 0 Z " fill="#CECECE" transform="translate(283,42)"/>
<path d="M0 0 C0.33 0 0.66 0 1 0 C1 8.91 1 17.82 1 27 C2.32 27 3.64 27 5 27 C5.33 26.01 5.66 25.02 6 24 C6 32.91 6 41.82 6 51 C5.67 51 5.34 51 5 51 C5 44.07 5 37.14 5 30 C4.01 30 3.02 30 2 30 C2 29.34 2 28.68 2 28 C-2.62 28 -7.24 28 -12 28 C-12 27.67 -12 27.34 -12 27 C-8.04 27 -4.08 27 0 27 C0 18.09 0 9.18 0 0 Z " fill="#DFDFDF" transform="translate(164,12)"/>
<path d="M0 0 C3.96 0 7.92 0 12 0 C12 0.33 12 0.66 12 1 C8.37 1.33 4.74 1.66 1 2 C1 7.94 1 13.88 1 20 C1.99 20.33 2.98 20.66 4 21 C3.34 21.66 2.68 22.32 2 23 C1.69400937 25.56916657 1.48912913 28.04758384 1.375 30.625 C1.33632812 31.33140625 1.29765625 32.0378125 1.2578125 32.765625 C1.16352276 34.50998524 1.08067109 36.25495691 1 38 C4.3 38 7.6 38 11 38 C11.33 37.34 11.66 36.68 12 36 C12 36.99 12 37.98 12 39 C8.04 39 4.08 39 0 39 C0 26.13 0 13.26 0 0 Z " fill="#AEAEAE" transform="translate(252,49)"/>
<path d="M0 0 C0.33 0 0.66 0 1 0 C2.06841058 8.62415669 1.95347652 17.01860686 1.5625 25.6875 C1.51029297 26.97333984 1.45808594 28.25917969 1.40429688 29.58398438 C1.27593636 32.72298234 1.14104312 35.8615507 1 39 C0.67 39 0.34 39 0 39 C-0.33 30.09 -0.66 21.18 -1 12 C-9.91 11.67 -18.82 11.34 -28 11 C-28 10.67 -28 10.34 -28 10 C-18.76 10 -9.52 10 0 10 C0 6.7 0 3.4 0 0 Z " fill="#EAEAEA" transform="translate(194,0)"/>
<path d="M0 0 C2.97 0.495 2.97 0.495 6 1 C7.93381628 4.53421596 9.21019333 8.05096666 10 12 C9.236875 11.195625 8.47375 10.39125 7.6875 9.5625 C5.20569102 6.83200976 5.20569102 6.83200976 2 6 C1.67 8.64 1.34 11.28 1 14 C0.67 14 0.34 14 0 14 C0 9.38 0 4.76 0 0 Z " fill="#EBEBEB" transform="translate(62,85)"/>
<path d="M0 0 C0.66 0.66 1.32 1.32 2 2 C1.9765625 4.6015625 1.9765625 4.6015625 1.625 7.625 C1.45871094 9.12933594 1.45871094 9.12933594 1.2890625 10.6640625 C1.14597656 11.82035156 1.14597656 11.82035156 1 13 C-2.83724172 13.90413673 -6.37502274 14.10576898 -10.3125 14.0625 C-11.38113281 14.05347656 -12.44976562 14.04445313 -13.55078125 14.03515625 C-14.35902344 14.02355469 -15.16726562 14.01195313 -16 14 C-18.046875 10.28125 -18.046875 10.28125 -17.625 7.75 C-17.41875 7.1725 -17.2125 6.595 -17 6 C-16.34 7.98 -15.68 9.96 -15 12 C-10.05 12 -5.1 12 0 12 C0 8.04 0 4.08 0 0 Z " fill="#898989" transform="translate(217,88)"/>
<path d="M0 0 C0.99 0.33 1.98 0.66 3 1 C3.02724423 3.83339965 3.04695589 6.66653117 3.0625 9.5 C3.07087891 10.29148437 3.07925781 11.08296875 3.08789062 11.8984375 C3.10891185 17.02761717 2.73937287 21.92336106 2 27 C0 25 0 25 -0.22705078 22.47802734 C-0.21657715 21.4411377 -0.20610352 20.40424805 -0.1953125 19.3359375 C-0.18886719 18.21445313 -0.18242187 17.09296875 -0.17578125 15.9375 C-0.15902344 14.761875 -0.14226562 13.58625 -0.125 12.375 C-0.11597656 11.19164063 -0.10695313 10.00828125 -0.09765625 8.7890625 C-0.07402812 5.85917477 -0.04108514 2.9296866 0 0 Z " fill="#F1F1F1" transform="translate(283,71)"/>
<path d="M0 0 C6.93 0.33 13.86 0.66 21 1 C20.67 9.91 20.34 18.82 20 28 C19.67 28 19.34 28 19 28 C18.505 16.615 18.505 16.615 18 5 C17.34 4.67 16.68 4.34 16 4 C16 3.34 16 2.68 16 2 C11.05 2 6.1 2 1 2 C0.67 1.34 0.34 0.68 0 0 Z " fill="#DADADA" transform="translate(88,38)"/>
<path d="M0 0 C2.31 0.66 4.62 1.32 7 2 C7 6.29 7 10.58 7 15 C4.07490914 11.09987886 3.52464905 9.61691161 3 5 C2.34 5 1.68 5 1 5 C0.67 3.35 0.34 1.7 0 0 Z " fill="#D6D6D6" transform="translate(189,38)"/>
<path d="M0 0 C0.66 0 1.32 0 2 0 C2 0.66 2 1.32 2 2 C6.29 2 10.58 2 15 2 C15 2.66 15 3.32 15 4 C12.03 4 9.06 4 6 4 C6 6.97 6 9.94 6 13 C5.67 13 5.34 13 5 13 C5 10.03 5 7.06 5 4 C4.01 4 3.02 4 2 4 C2 7.3 2 10.6 2 14 C1.67 14 1.34 14 1 14 C0.67 9.38 0.34 4.76 0 0 Z " fill="#E9E9E9" transform="translate(280,38)"/>
<path d="M0 0 C-0.99 0 -1.98 0 -3 0 C-3 5.28 -3 10.56 -3 16 C-3.99 16 -4.98 16 -6 16 C-6 10.72 -6 5.44 -6 0 C-3.50907189 -1.24546405 -2.58919267 -0.7767578 0 0 Z " fill="#F0F0F0" transform="translate(259,51)"/>
<path d="M0 0 C0.33 0 0.66 0 1 0 C1.66 2.97 2.32 5.94 3 9 C1.02 9 -0.96 9 -3 9 C-3 9.66 -3 10.32 -3 11 C-4.65 11 -6.3 11 -8 11 C-8 13.97 -8 16.94 -8 20 C-8.33 20 -8.66 20 -9 20 C-9 15.05 -9 10.1 -9 5 C-8.34 5 -7.68 5 -7 5 C-6.67 5.99 -6.34 6.98 -6 8 C-4.02 8 -2.04 8 0 8 C0 5.36 0 2.72 0 0 Z " fill="#E0E0E0" transform="translate(343,31)"/>
<path d="M0 0 C0.33 0 0.66 0 1 0 C1 8.91 1 17.82 1 27 C0.34 26.67 -0.32 26.34 -1 26 C-1.33333333 24.66666667 -1.66666667 23.33333333 -2 22 C-2.66 21.67 -3.32 21.34 -4 21 C-3.67 19.68 -3.34 18.36 -3 17 C-2.01 17.99 -1.02 18.98 0 20 C0 13.4 0 6.8 0 0 Z " fill="#BABABA" transform="translate(200,36)"/>
<path d="M0 0 C0.33 0 0.66 0 1 0 C1 8.91 1 17.82 1 27 C2.32 27 3.64 27 5 27 C5 27.99 5 28.98 5 30 C3.35 30 1.7 30 0 30 C0 20.1 0 10.2 0 0 Z " fill="#F3F3F3" transform="translate(195,12)"/>
<path d="M0 0 C1.485 0.99 1.485 0.99 3 2 C6.38976901 1.73041853 6.38976901 1.73041853 10 1 C11.134375 0.814375 12.26875 0.62875 13.4375 0.4375 C14.7059375 0.2209375 14.7059375 0.2209375 16 0 C15.01 0.495 15.01 0.495 14 1 C14 1.66 14 2.32 14 3 C5.57142857 5.28571429 5.57142857 5.28571429 1 5 C0.67 3.35 0.34 1.7 0 0 Z " fill="#A5A5A5" transform="translate(72,97)"/>
<path d="M0 0 C2.64 0 5.28 0 8 0 C8 2.97 8 5.94 8 9 C7.67 9 7.34 9 7 9 C7 7.02 7 5.04 7 3 C4.69 3 2.38 3 0 3 C0 2.01 0 1.02 0 0 Z " fill="#F2F2F2" transform="translate(226,39)"/>
<path d="M0 0 C0.99 0 1.98 0 3 0 C3 3.3 3 6.6 3 10 C2.01 10 1.02 10 0 10 C0 6.7 0 3.4 0 0 Z " fill="#F2F2F2" transform="translate(223,0)"/>
<path d="M0 0 C0.66 0 1.32 0 2 0 C2.33 3.3 2.66 6.6 3 10 C2.01 10 1.02 10 0 10 C0 6.7 0 3.4 0 0 Z " fill="#F1F1F1" transform="translate(343,0)"/>
<path d="M0 0 C2.5 1.625 2.5 1.625 5 4 C5.3125 7.25 5.3125 7.25 5 10 C4.34 9.67 3.68 9.34 3 9 C2.66666667 7.66666667 2.33333333 6.33333333 2 5 C1.34 4.67 0.68 4.34 0 4 C0 2.68 0 1.36 0 0 Z " fill="#8F8F8F" transform="translate(196,53)"/>
<path d="M0 0 C0.66 0.33 1.32 0.66 2 1 C2 2.98 2 4.96 2 7 C1.01 7 0.02 7 -1 7 C-0.67 4.69 -0.34 2.38 0 0 Z " fill="#FFFFFF" transform="translate(74,103)"/>
<path d="M0 0 C0.66 0.33 1.32 0.66 2 1 C1.67 2.32 1.34 3.64 1 5 C0.34 4.67 -0.32 4.34 -1 4 C-0.67 2.68 -0.34 1.36 0 0 Z " fill="#FFFFFF" transform="translate(43,103)"/>
<path d="M0 0 C0.66 0.66 1.32 1.32 2 2 C1.34 2 0.68 2 0 2 C0 1.34 0 0.68 0 0 Z " fill="#FFFFFF" transform="translate(225,76)"/>
</svg>
